<svg version="1.1" id="Layer_1" xmlns="http://www.w3.org/2000/svg" xmlns:xlink="http://www.w3.org/1999/xlink" x="0px" y="0px"
	 viewBox="0 0 38.1 29.2" enable-background="new 0 0 38.1 29.2" xml:space="preserve">
<g>
	<path d="M33.6,19c-0.2,0.6-0.2,1.1-0.1,1.6c0.1,0.5,0.1,1.1,0,1.6c0,0.4-0.2,0.8-0.5,1.2c-0.2,0.3-0.4,0.4-0.7,0.4
		c-0.3,0-0.7,0.1-1.1,0.2C30.7,24.1,30.3,24,30,24c-0.3-0.1-0.7,0-1.1,0.1c-0.3,0.1-0.6,0-1.1,0c-0.5-0.1-0.8,0-1.1,0.1
		c-1-0.2-2-0.2-3-0.1c-1,0.1-2,0.1-3,0c-0.4,0-0.8,0-1.2,0c-0.4,0-0.8,0-1.2,0c-0.4,0.1-0.9,0.1-1.4,0c-0.5,0-0.7-0.2-0.7-0.4
		c-0.8,0.3-1.7,0.4-2.6,0.4s-1.8,0-2.7,0c-0.7-0.1-1.6,0-2.6,0c-1,0.1-1.8,0-2.5-0.2c-0.5-0.2-0.8-0.6-1-1.1
		c-0.2-0.2-0.2-0.4-0.1-0.6c0.1-0.2,0.1-0.4,0.1-0.6c-0.1-0.3-0.1-0.6-0.1-1c0-0.3,0.1-0.6,0.2-1c0-0.3-0.1-0.6-0.2-1
		S4.6,18,4.7,17.7c0.4-0.4,1-0.7,1.9-0.9c0.8-0.2,1.7-0.2,2.7-0.2s2,0,2.9,0.1c1,0.1,1.8,0.1,2.4,0.1c0.3,0,0.8,0,1.4-0.1
		c0.6-0.1,1,0,1.3,0.1c0.2,0.1,0.5,0.1,0.9,0c0.5-0.1,0.9-0.1,1.2-0.1c0.4,0.1,0.9,0.1,1.3,0.1c0.5,0,0.9,0,1.3-0.1
		c0.4-0.1,0.9-0.1,1.4,0c0.5,0.1,1,0.1,1.4,0c0.4-0.1,0.7-0.1,1-0.1c0.2,0.1,0.6,0.1,1,0c0.3,0,0.7,0,1,0c0.3,0,0.7,0,1,0.1
		c0.4,0.1,0.6,0.1,0.7,0c0-0.1,0.2-0.1,0.6-0.1c0.4,0,0.8,0,1.3,0c0.4,0,0.7,0.1,0.9,0.2c0.4,0.2,0.7,0.4,0.8,0.5
		c0.1,0.1,0.2,0.4,0.3,0.7c0.1,0.2,0.1,0.3,0,0.4c-0.2,0.2-0.2,0.2-0.1,0.2C33.4,18.8,33.5,18.9,33.6,19z M8,21.7
		c0.2,0,0.3-0.1,0.5-0.2C8.1,21.3,7.9,21.4,8,21.7z M9.7,22.5c0.2,0,0.3,0,0.5,0c0.2,0,0.3-0.1,0.4-0.3c-0.2,0-0.3,0-0.5,0
		C9.9,22.3,9.8,22.4,9.7,22.5z M12,21.4c0-0.1,0-0.2,0.1-0.4c0.1-0.1,0.1-0.3,0.1-0.4c-0.2-0.2-0.5-0.2-0.8-0.1
		c-0.3,0.1-0.6,0.1-0.9,0c0.1,0.3,0.4,0.4,1,0.4c0.2,0.1,0.3,0.1,0.3,0.2S11.8,21.4,12,21.4z M13.6,21.5c-0.1,0.1,0,0.2,0.1,0.2
		c0.2,0,0.3-0.1,0.3-0.2H13.6z M14.2,20.3c0-0.2-0.1-0.2-0.4-0.2C13.7,20.2,13.8,20.3,14.2,20.3z M14.8,20.5c0.3,0,0.4-0.1,0.4-0.3
		C14.9,20.1,14.8,20.3,14.8,20.5z M15,22.9c0.2,0.1,0.3,0.1,0.3,0C15.2,22.8,15.1,22.8,15,22.9z M16.3,19.7
		c-0.2,0.1-0.1,0.2,0.1,0.2C16.6,19.8,16.6,19.8,16.3,19.7z M16.3,23.6c0.3,0.1,0.5,0.1,0.4,0C16.6,23.4,16.5,23.4,16.3,23.6z
		 M17.6,20.6c0.1,0.1,0.2,0.1,0.3,0.1c0.1-0.1,0.2-0.1,0.3-0.2C18,20.3,17.8,20.4,17.6,20.6z M18,21.7c0.2,0,0.3,0,0.4,0
		c0.1,0,0.3,0,0.4,0c-0.2-0.2-0.4-0.4-0.7-0.5C18,21.4,18,21.5,18,21.7z M19,22.5c-0.2-0.1-0.3-0.1-0.3,0
		C18.6,22.6,18.7,22.6,19,22.5L19,22.5z M19.5,20.9c0.2,0.1,0.3,0.1,0.3,0C19.7,20.7,19.6,20.7,19.5,20.9z M21.7,19.6
		c0.2,0,0.3-0.1,0.3-0.2s-0.1-0.2-0.3-0.2C21.6,19.3,21.6,19.5,21.7,19.6z M21.7,18.9c0.3,0,0.4-0.1,0.4-0.2c0-0.1-0.1-0.2-0.3-0.2
		C21.7,18.7,21.6,18.8,21.7,18.9z M23,19.9h0.4c0-0.1-0.1-0.2-0.4-0.2V19.9z M23.2,21.1c0.1-0.1,0.2-0.2,0.3-0.2
		c0.1,0,0.2-0.1,0.3-0.2c-0.2-0.1-0.4-0.1-0.6,0.1C22.9,20.9,23,21.1,23.2,21.1z M24.5,17.7c-0.2-0.1-0.3,0-0.4,0.1
		c-0.1,0.1,0,0.2,0.1,0.2c0.1-0.1,0.2-0.2,0.3-0.2C24.6,17.8,24.6,17.8,24.5,17.7z M24.7,20.9c0-0.2-0.2-0.3-0.6-0.3
		C24.1,20.8,24.3,20.9,24.7,20.9z M25.5,20.1c-0.1,0.1-0.2,0.2-0.2,0.2c-0.1,0-0.1,0.1-0.1,0.2c0.3,0,0.5-0.1,0.6-0.2
		C25.8,20.3,25.7,20.2,25.5,20.1z M25.1,21.7c0.2,0,0.4,0,0.6,0.1c0.2,0.1,0.4,0,0.4-0.1c-0.2-0.1-0.4-0.1-0.6-0.2
		C25.3,21.5,25.2,21.5,25.1,21.7z M25.8,21.1c-0.1,0.2,0,0.3,0.1,0.2C26.1,21.2,26.1,21.1,25.8,21.1z M26,20.6
		c0.2-0.1,0.4-0.1,0.7,0c0.3,0.1,0.4-0.1,0.2-0.3c-0.2-0.2-0.4-0.3-0.6-0.1C26.2,20.3,26.1,20.5,26,20.6z M26.3,17.5
		c0.1-0.1,0.1-0.1,0-0.1c-0.1,0-0.1,0-0.1,0.1H26.3z M28.5,20.4c0.2-0.1,0.3-0.2,0.4-0.4c0.1-0.2,0.1-0.3-0.1-0.4
		c-0.2,0-0.3,0.1-0.4,0.3C28.3,20.1,28.3,20.2,28.5,20.4z M28.7,21.3c0.4,0,0.5-0.1,0.3-0.2C28.8,20.9,28.7,21,28.7,21.3z M29,23.4
		c0.3,0.1,0.5,0.1,0.6-0.1c0-0.2-0.1-0.3-0.4-0.2C29,23.2,29,23.3,29,23.4z M32,18.5c0.3,0,0.4,0,0.4-0.1c0-0.1,0-0.1-0.1-0.1
		c-0.1,0-0.2,0-0.3,0C32,18.2,32,18.3,32,18.5z M32.1,22.1c0.3,0,0.4-0.1,0.4-0.2C32.1,21.9,31.9,21.9,32.1,22.1z M33.1,22
		c0-0.1-0.1-0.2-0.3-0.2V22H33.1z"/>
</g>
<g>
	<path d="M4.6,10.1C4.7,9.5,4.8,9,4.7,8.5C4.6,8,4.6,7.4,4.7,6.8c0-0.4,0.2-0.8,0.5-1.2C5.4,5.4,5.6,5.2,6,5.2
		c0.3,0,0.7-0.1,1.1-0.2c0.4,0.1,0.8,0.1,1.1,0.2c0.3,0.1,0.7,0,1.1-0.1c0.3-0.1,0.6,0,1.1,0c0.5,0.1,0.8,0,1.1-0.1
		c1,0.2,2,0.2,3,0.1c1-0.1,2-0.1,3,0c0.4,0,0.8,0,1.2,0c0.4,0,0.8,0,1.2,0C20.4,5,20.8,5,21.3,5c0.5,0,0.7,0.2,0.7,0.4
		c0.8-0.3,1.7-0.4,2.6-0.4c0.9,0,1.8,0,2.7,0c0.7,0.1,1.6,0,2.6,0c1-0.1,1.8,0,2.5,0.2c0.5,0.2,0.8,0.6,1,1.1
		c0.2,0.2,0.2,0.4,0.1,0.6c-0.1,0.2-0.1,0.4-0.1,0.6c0.1,0.3,0.1,0.6,0.1,1c0,0.3-0.1,0.6-0.2,1c0,0.3,0.1,0.6,0.2,1
		s0.1,0.7-0.1,0.9c-0.4,0.4-1,0.7-1.9,0.9c-0.8,0.2-1.7,0.2-2.7,0.2c-1,0-2,0-2.9-0.1c-1-0.1-1.8-0.1-2.4-0.1c-0.3,0-0.8,0-1.4,0.1
		c-0.6,0.1-1,0-1.3-0.1c-0.2-0.1-0.5-0.1-0.9,0c-0.5,0.1-0.9,0.1-1.2,0.1c-0.4-0.1-0.9-0.1-1.3-0.1c-0.5,0-0.9,0-1.3,0.1
		c-0.4,0.1-0.9,0.1-1.4,0c-0.5-0.1-1-0.1-1.4,0c-0.4,0.1-0.7,0.1-1,0.1c-0.2-0.1-0.6-0.1-1,0c-0.3,0-0.7,0-1,0c-0.3,0-0.7,0-1-0.1
		c-0.4-0.1-0.6-0.1-0.7,0c0,0.1-0.2,0.1-0.6,0.1c-0.4,0-0.8,0-1.3,0c-0.4,0-0.7-0.1-0.9-0.2C5.4,12,5.1,11.8,5,11.7
		c-0.1-0.1-0.2-0.4-0.3-0.7c-0.1-0.2-0.1-0.3,0-0.4c0.2-0.2,0.2-0.2,0.1-0.2C4.7,10.4,4.7,10.3,4.6,10.1z M30.2,7.4
		c-0.2,0-0.3,0.1-0.5,0.2C30.1,7.8,30.3,7.7,30.2,7.4z M28.5,6.7c-0.2,0-0.3,0-0.5,0c-0.2,0-0.3,0.1-0.4,0.3c0.2,0,0.3,0,0.5,0
		C28.2,6.9,28.4,6.8,28.5,6.7z M26.2,7.7c0,0.1,0,0.2-0.1,0.4C26,8.2,26,8.3,26,8.4c0.2,0.2,0.5,0.2,0.8,0.1c0.3-0.1,0.6-0.1,0.9,0
		c-0.1-0.3-0.4-0.4-1-0.4c-0.2-0.1-0.3-0.1-0.3-0.2C26.5,7.8,26.4,7.8,26.2,7.7z M24.6,7.6c0.1-0.1,0-0.2-0.1-0.2
		c-0.2,0-0.3,0.1-0.3,0.2H24.6z M24,8.8c0,0.2,0.1,0.2,0.4,0.2C24.5,8.9,24.4,8.8,24,8.8z M23.3,8.7C23.1,8.7,23,8.8,23,9
		C23.3,9,23.4,8.9,23.3,8.7z M23.2,6.2C23,6.1,23,6.1,23,6.2C23,6.3,23,6.3,23.2,6.2z M21.8,9.5C22,9.4,22,9.3,21.8,9.3
		C21.6,9.3,21.6,9.4,21.8,9.5z M21.8,5.6c-0.3-0.1-0.5-0.1-0.4,0C21.5,5.7,21.7,5.7,21.8,5.6z M20.6,8.5c-0.1-0.1-0.2-0.1-0.3-0.1
		C20.1,8.5,20,8.6,20,8.7C20.2,8.8,20.4,8.8,20.6,8.5z M20.2,7.4c-0.2,0-0.3,0-0.4,0c-0.1,0-0.3,0-0.4,0c0.2,0.2,0.4,0.4,0.7,0.5
		C20.2,7.8,20.2,7.6,20.2,7.4z M19.2,6.7c0.2,0.1,0.3,0.1,0.3,0C19.6,6.6,19.5,6.6,19.2,6.7L19.2,6.7z M18.7,8.3
		c-0.2-0.1-0.3-0.1-0.3,0C18.5,8.5,18.5,8.4,18.7,8.3z M16.5,9.6c-0.2,0-0.3,0.1-0.3,0.2c0,0.2,0.1,0.2,0.3,0.2
		C16.6,9.8,16.6,9.7,16.5,9.6z M16.5,10.2c-0.3,0-0.4,0.1-0.4,0.2c0,0.1,0.1,0.2,0.3,0.2C16.5,10.4,16.5,10.3,16.5,10.2z M15.2,9.2
		h-0.4c0,0.1,0.1,0.2,0.4,0.2V9.2z M15,8c-0.1,0.1-0.2,0.2-0.3,0.2c-0.1,0-0.2,0.1-0.3,0.2c0.2,0.1,0.4,0.1,0.6-0.1
		C15.2,8.2,15.2,8.1,15,8z M13.7,11.5c0.2,0.1,0.3,0,0.4-0.1c0.1-0.1,0-0.2-0.1-0.2c-0.1,0.1-0.2,0.2-0.3,0.2
		C13.6,11.3,13.6,11.4,13.7,11.5z M13.5,8.3c0,0.2,0.2,0.3,0.6,0.3C14.1,8.4,13.9,8.3,13.5,8.3z M12.7,9c0.1-0.1,0.2-0.2,0.2-0.2
		c0.1,0,0.1-0.1,0.1-0.2c-0.3,0-0.5,0.1-0.6,0.2C12.4,8.9,12.5,9,12.7,9z M13.1,7.4c-0.2,0-0.4,0-0.6-0.1c-0.2-0.1-0.4,0-0.4,0.1
		c0.2,0.1,0.4,0.1,0.6,0.2C12.8,7.7,13,7.6,13.1,7.4z M12.3,8c0.1-0.2,0-0.3-0.1-0.2C12,8,12.1,8,12.3,8z M12.2,8.5
		c-0.2,0.1-0.4,0.1-0.7,0c-0.3-0.1-0.4,0.1-0.2,0.3c0.2,0.2,0.4,0.3,0.6,0.1C12,8.8,12.1,8.7,12.2,8.5z M11.8,11.6
		c-0.1,0.1-0.1,0.1,0,0.1c0.1,0,0.1,0,0.1-0.1H11.8z M9.7,8.8C9.5,8.8,9.4,8.9,9.3,9.1C9.1,9.3,9.2,9.5,9.3,9.6
		c0.2,0,0.3-0.1,0.4-0.3C9.9,9.1,9.9,8.9,9.7,8.8z M9.5,7.9C9,7.9,8.9,8,9.1,8.1C9.3,8.2,9.5,8.2,9.5,7.9z M9.2,5.7
		C8.9,5.6,8.7,5.7,8.6,5.8C8.6,6,8.7,6.1,9.1,6C9.2,6,9.2,5.9,9.2,5.7z M6.2,10.7c-0.3,0-0.4,0-0.4,0.1c0,0.1,0,0.1,0.1,0.1
		c0.1,0,0.2,0,0.3,0C6.2,10.9,6.2,10.8,6.2,10.7z M6.1,7C5.8,7,5.7,7.1,5.7,7.2C6.1,7.3,6.2,7.2,6.1,7z M5.1,7.2
		c0,0.1,0.1,0.2,0.3,0.2V7.2H5.1z"/>
</g>
</svg>
