<?xml version="1.0" encoding="UTF-8"?>
<svg width="33px" height="33px" viewBox="0 0 33 33" version="1.1" xmlns="http://www.w3.org/2000/svg" xmlns:xlink="http://www.w3.org/1999/xlink">
    <!-- Generator: Sketch 41.1 (35376) - http://www.bohemiancoding.com/sketch -->
    <title>Icon: Phone</title>
    <desc>Created with Sketch.</desc>
    <defs></defs>
    <g id="Page-1" stroke="none" stroke-width="1" fill="none" fill-rule="evenodd">
        <g id="6:-Contact" transform="translate(-114.000000, -493.000000)">
            <g id="Left-side">
                <g id="Phone-Number" transform="translate(115.000000, 494.000000)">
                    <g id="Icon:-Phone">
                        <path d="M14.9655172,18.7068966 L14.9655172,28.3275862 C14.8260172,29.8161207 13.7816379,31 12.2931034,31 L2.67241379,31 C1.18387931,31 0,29.7931379 0,28.304069 L0,8.01724138 C0,6.5287069 1.18387931,5.34482759 2.67241379,5.34482759 L6.94827586,5.34482759" id="Stroke-1" stroke="#5A5129" stroke-width="2" stroke-linecap="round"></path>
                        <path d="M6.4137931,10.6896552 L0,10.6896552" id="Stroke-3" stroke="#5A5129" stroke-width="2" stroke-linecap="round"></path>
                        <path d="M14.9655172,25.6551724 L0,25.6551724" id="Stroke-5" stroke="#5A5129" stroke-width="2" stroke-linecap="round"></path>
                        <path d="M5.34482759,8.01724138 L6.4137931,8.01724138" id="Stroke-7" stroke="#5A5129" stroke-width="2" stroke-linecap="round"></path>
                        <path d="M31,9.62068966 C31,10.7372241 29.9786034,11.7586207 28.862069,11.7586207 L21.4487931,11.7586207 L17.1034483,16.0344828 L17.1034483,11.7586207 L12.8275862,11.7586207 C11.7110517,11.7586207 10.6896552,10.7372241 10.6896552,9.62068966 L10.6896552,2.13793103 C10.6896552,1.02193103 11.7110517,0 12.8275862,0 L28.862069,0 C29.9786034,0 31,1.02193103 31,2.13793103 L31,9.62068966 Z" id="Stroke-9" stroke="#5A5129" stroke-width="2" stroke-linecap="round" stroke-linejoin="round"></path>
                        <path d="M20.8912741,5.39127414 C20.5187397,5.39127414 20.2172914,5.6932569 20.2172914,6.0652569 C20.2172914,6.4372569 20.5187397,6.73870517 20.8912741,6.73870517 C21.2638086,6.73870517 21.5652569,6.4372569 21.5652569,6.0652569 C21.5652569,5.6932569 21.2638086,5.39127414 20.8912741,5.39127414" id="Fill-11" fill="#231F1F"></path>
                        <path d="M24.2607603,5.39127414 C23.8882259,5.39127414 23.5867776,5.6932569 23.5867776,6.0652569 C23.5867776,6.4372569 23.8882259,6.73870517 24.2607603,6.73870517 C24.6332948,6.73870517 24.9347431,6.4372569 24.9347431,6.0652569 C24.9347431,5.6932569 24.6332948,5.39127414 24.2607603,5.39127414" id="Fill-13" fill="#231F1F"></path>
                        <path d="M17.5217879,5.39127414 C17.1492534,5.39127414 16.8478052,5.6932569 16.8478052,6.0652569 C16.8478052,6.4372569 17.1492534,6.73870517 17.5217879,6.73870517 C17.8943224,6.73870517 18.1957707,6.4372569 18.1957707,6.0652569 C18.1957707,5.6932569 17.8943224,5.39127414 17.5217879,5.39127414" id="Fill-15" fill="#231F1F"></path>
                        <path d="M8.08667069,28.3043362 C8.08667069,28.6768707 7.7857569,28.978319 7.41268793,28.978319 C7.04015345,28.978319 6.73923966,28.6768707 6.73923966,28.3043362 C6.73923966,27.9318017 7.04015345,27.6303534 7.41268793,27.6303534 C7.7857569,27.6303534 8.08667069,27.9318017 8.08667069,28.3043362 Z" id="Stroke-17" stroke="#5A5129" stroke-width="2" stroke-linecap="round"></path>
                    </g>
                </g>
            </g>
        </g>
    </g>
</svg>